<?xml version="1.0" encoding="UTF-8" standalone="no"?>
<!-- Created with Inkscape (http://www.inkscape.org/) -->

<svg
   width="52.755428mm"
   height="42.1721mm"
   viewBox="0 0 52.755428 42.1721"
   version="1.1"
   id="svg1"
   inkscape:version="1.3 (0e150ed6c4, 2023-07-21)"
   sodipodi:docname="tile-creation.svg"
   xmlns:inkscape="http://www.inkscape.org/namespaces/inkscape"
   xmlns:sodipodi="http://sodipodi.sourceforge.net/DTD/sodipodi-0.dtd"
   xmlns="http://www.w3.org/2000/svg"
   xmlns:svg="http://www.w3.org/2000/svg">
  <sodipodi:namedview
     id="namedview1"
     pagecolor="#ffffff"
     bordercolor="#000000"
     borderopacity="0.25"
     inkscape:showpageshadow="2"
     inkscape:pageopacity="0.0"
     inkscape:pagecheckerboard="0"
     inkscape:deskcolor="#d1d1d1"
     inkscape:document-units="mm"
     showguides="true"
     inkscape:zoom="1.4485269"
     inkscape:cx="79.04582"
     inkscape:cy="190.88358"
     inkscape:window-width="1920"
     inkscape:window-height="1009"
     inkscape:window-x="-8"
     inkscape:window-y="-8"
     inkscape:window-maximized="1"
     inkscape:current-layer="layer1" />
  <defs
     id="defs1" />
  <g
     inkscape:label="Layer 1"
     inkscape:groupmode="layer"
     id="layer1"
     transform="translate(-79.038546,-48.938281)">
    <g
       id="g25">
      <rect
         style="fill:#e8d7a7;fill-opacity:1;stroke:none;stroke-width:0.161234;stroke-linecap:round;stroke-linejoin:round"
         id="rect1-4-5"
         width="52.755432"
         height="42.1721"
         x="79.038544"
         y="48.938278" />
      <g
         transform="matrix(0.26458333,0,0,0.26458333,-51.573247,-5.918728)"
         id="g5663">
        <rect
           style="fill:#d3d3d3;fill-opacity:1;stroke-width:0.832883"
           id="rect1637-62"
           width="135.60641"
           height="88.424866"
           x="525.54297"
           y="246.70178" />
        <rect
           style="fill:#4d4d4d;fill-opacity:1;stroke-width:0.208947"
           id="rect1637-3-8"
           width="19.587606"
           height="38.528103"
           x="583.55237"
           y="296.59875" />
        <path
           inkscape:connector-curvature="0"
           id="rect1637-6-4"
           style="fill:#4d4d4d;fill-opacity:1;stroke-width:0.528329"
           d="m 549.65077,226.25943 h 88.8975 l 22.6011,20.4424 h -135.6064 z" />
        <path
           inkscape:connector-curvature="0"
           style="fill:#9a9a9a;fill-opacity:1;stroke:#4d4d4d;stroke-width:1px;stroke-linecap:butt;stroke-linejoin:miter;stroke-opacity:1"
           d="m 581.59533,304.28693 -2.82843,4.24264 25.8094,16.26345 2.47487,-4.94975 z"
           id="path5490" />
        <path
           inkscape:connector-curvature="0"
           style="fill:#9a9a9a;fill-opacity:1;stroke:#4d4d4d;stroke-width:1px;stroke-linecap:butt;stroke-linejoin:miter;stroke-opacity:1"
           d="m 604.78971,304.22697 2.82843,4.24264 -25.80941,16.26345 -2.47487,-4.94975 z"
           id="path5490-7" />
        <g
           id="g5582"
           transform="translate(-3.0000015)">
          <text
             id="text3711-1"
             y="283.54214"
             x="549.84717"
             style="font-style:normal;font-weight:normal;font-size:24.4557px;line-height:1.25;font-family:sans-serif;fill:#9a9a9a;fill-opacity:1;stroke:none;stroke-width:0.611394"
             xml:space="preserve"><tspan
               y="283.54214"
               x="549.84717"
               style="font-weight:bold;fill:#9a9a9a;fill-opacity:1;stroke-width:0.611394"
               id="tspan3709-0">XXX</tspan></text>
          <g
             transform="translate(-5.4789122,2.25)"
             id="g5551">
            <path
               inkscape:connector-curvature="0"
               style="fill:#9a9a9a;fill-opacity:1;stroke:none;stroke-width:0.214036px;stroke-linecap:butt;stroke-linejoin:miter;stroke-opacity:1"
               d="m 622.93015,279.7087 c -0.69823,-1.74557 -2.26033,-2.54126 -3.4206,-4.0757 -0.81124,-1.07287 -1.86257,-2.31061 -0.3576,-3.84971 0.88835,-0.9085 2.62879,-0.2955 3.32213,2.08239 -0.0738,-0.68275 0.44137,-1.5076 0.85514,-1.96733 1.51875,-1.68751 3.13589,0.33825 2.96451,2.22338 -0.18557,2.04122 -3.68725,3.96866 -3.36358,5.58697 z"
               id="path84614" />
            <path
               inkscape:connector-curvature="0"
               id="path5543"
               d="m 645.79678,281.24823 c 0.64004,-0.0782 0.60438,-0.0234 0.82941,-1.27548 0.10896,-0.60656 0.3148,-1.56345 0.45731,-2.12644 0.23353,-0.92258 0.37302,-1.35488 0.81677,-2.53147 l 0.13723,-0.36378 -0.27887,-0.75725 c -0.53234,-1.44553 -0.61278,-2.22294 -0.6812,-6.58372 l -0.0406,-2.58916 -0.46671,-0.9333 c -0.50577,-1.01143 -0.82051,-1.47072 -1.36457,-1.99127 -0.28943,-0.27692 -0.44504,-0.36978 -0.89248,-0.5325 -1.75728,-0.63914 -3.20292,-1.58134 -3.68667,-2.40278 -0.13405,-0.22762 -0.1485,-0.30438 -0.11603,-0.61565 0.0462,-0.44121 0.0171,-0.4617 -0.78361,-0.55265 -0.80627,-0.0916 -2.09989,0.0146 -2.78983,0.22907 -0.97778,0.3039 -1.35286,0.58278 -1.7877,1.32915 -0.16145,0.27712 -0.29492,0.42738 -0.45041,0.50707 -0.12156,0.0622 -0.39988,0.24865 -0.61852,0.41414 -0.48845,0.36971 -0.58797,0.42413 -0.77557,0.42413 -0.27475,0 -1.21167,0.30301 -1.78361,0.57683 -1.25272,0.59978 -1.8187,1.16529 -2.50054,2.49852 -0.26665,0.52136 -0.55351,0.99494 -0.67825,1.1197 -0.63136,0.63134 -2.23053,0.88269 -3.04252,0.4782 -0.17334,-0.0864 -0.56199,-0.38062 -0.86366,-0.6539 -2.13771,-1.9366 -2.32038,-2.11369 -2.45906,-2.38393 -0.27201,-0.53002 -0.2531,-0.51999 -0.69825,-0.37001 -0.29391,0.099 -0.46082,0.12143 -0.68455,0.0918 -0.28574,-0.0378 -0.31765,-0.0259 -0.9333,0.35005 -0.6031,0.36829 -0.67487,0.39594 -1.33247,0.51346 -1.5752,0.28149 -1.95714,0.58685 -2.02806,1.62138 -0.0299,0.43614 -0.0218,0.48061 0.11783,0.6429 l 0.14998,0.17436 0.35454,-0.0819 c 0.514,-0.11879 1.37064,-0.0877 2.39802,0.0869 0.87243,0.1483 0.90813,0.16022 1.18871,0.39681 1.53017,1.29027 3.1275,2.437 4.01377,2.88153 0.25371,0.12725 0.70517,0.31504 1.00322,0.4173 0.29806,0.1023 0.69095,0.24022 0.87309,0.30656 0.51836,0.18881 1.48835,0.13886 2.8781,-0.1482 0.41764,-0.0862 0.45471,-0.0848 0.70865,0.0276 0.29609,0.13099 1.60135,0.99112 1.73421,1.14281 0.21978,0.25094 0.66809,3.33 0.75358,5.17562 0.0879,1.89818 -0.0481,3.28516 -0.39493,4.02596 -0.16302,0.34823 -0.54409,0.71259 -0.80525,0.76995 -0.22897,0.0503 -0.31009,0.16368 -0.28722,0.40145 0.0146,0.15173 0.0616,0.2194 0.19673,0.28391 0.15625,0.0746 0.2683,0.0697 0.9333,-0.0401 1.14638,-0.18929 1.24749,-0.2525 1.06247,-0.66422 -0.0941,-0.20927 -0.0927,-0.28729 0.0227,-1.30639 0.23969,-2.11588 0.27321,-2.3182 0.38404,-2.3182 0.098,0 1.38124,0.87055 1.8933,1.28449 0.20841,0.16846 0.45477,0.42932 0.54748,0.57969 0.14876,0.24129 0.22676,0.29711 0.66462,0.47554 0.45262,0.18444 0.51381,0.22988 0.69853,0.51864 0.27809,0.43473 0.54312,0.65291 0.69463,0.57182 0.16031,-0.0858 0.1986,-0.29252 0.15967,-0.86233 -0.0395,-0.57801 -0.17187,-0.99299 -0.37882,-1.18741 -0.14118,-0.13266 -0.1671,-0.1364 -0.48499,-0.0697 -0.45626,0.0958 -0.59823,0.0283 -1.45932,-0.69288 -1.31198,-1.09881 -1.70227,-1.59954 -1.88958,-2.42426 -0.10354,-0.45606 -0.10562,-3.71029 -0.003,-3.89013 0.057,-0.0992 0.17459,-0.14278 0.54192,-0.20042 1.65732,-0.26004 3.80363,-0.75787 4.97528,-1.15401 0.7355,-0.24868 0.88329,-0.24895 0.88274,-10e-4 -4.9e-4,0.21653 0.61311,1.32377 0.92462,1.66848 0.41427,0.4584 0.45797,0.54853 0.80345,1.65686 0.28283,0.90741 0.28894,0.94355 0.28406,1.68002 -0.004,0.63753 -0.0301,0.83556 -0.16909,1.29459 -0.23537,0.77718 -0.56804,1.53086 -1.23125,2.78947 -0.46062,0.87418 -0.619,1.12283 -0.76211,1.19646 -0.27704,0.14257 -0.39138,0.26435 -0.39138,0.41682 0,0.0765 0.0474,0.16421 0.10535,0.19491 0.1695,0.0898 0.95014,0.19192 1.1545,0.15105 0.2659,-0.0532 0.4631,-0.32015 0.60743,-0.82228 0.51137,-1.77917 1.10692,-2.99859 2.19703,-4.49846 0.20458,-0.2815 0.38895,-0.54156 0.40969,-0.5779 0.0208,-0.0363 -0.055,-0.47974 -0.16828,-0.98532 -0.11325,-0.50557 -0.23785,-1.19326 -0.27679,-1.5282 -0.11491,-0.98886 0.0125,-2.29985 0.22958,-2.3724 0.0426,-0.0141 0.11158,0.11658 0.17231,0.32659 0.17179,0.59432 0.36736,0.96975 0.67664,1.29884 0.35044,0.37289 0.5262,0.70453 0.8186,1.54457 0.40267,1.15684 0.4811,1.67307 0.4811,3.16691 0,1.14644 -0.0182,1.40834 -0.13474,1.94638 -0.26625,1.2281 -0.58281,1.75299 -1.23639,2.05012 -0.43678,0.19858 -0.54717,0.31283 -0.49667,0.51401 0.0617,0.24567 0.64997,0.36431 1.37008,0.27631 z"
               style="fill:#4d4d4d;fill-opacity:1;stroke-width:0.060213" />
          </g>
        </g>
      </g>
    </g>
  </g>
</svg>
